<svg xmlns="http://www.w3.org/2000/svg" width="324" height="324" viewBox="0 0 324 324" version="1.1"><path d="M 227.264 194.718 C 228.784 194.947, 231.034 194.941, 232.264 194.704 C 233.494 194.467, 232.250 194.279, 229.500 194.286 C 226.750 194.294, 225.744 194.488, 227.264 194.718 M 85 196.431 C 82.525 197.120, 78.475 198.765, 76 200.088 C 73.525 201.410, 70.441 202.719, 69.146 202.996 C 67.805 203.283, 65.869 205.083, 64.646 207.181 C 61.775 212.107, 50.998 229.978, 49.352 232.543 C 48.192 234.352, 48.464 235.215, 51.713 240.043 C 55.985 246.390, 73.917 265.194, 75.269 264.744 C 75.774 264.575, 80.166 257.927, 85.029 249.969 C 92.818 237.223, 116.604 197.755, 117.706 195.750 C 118.399 194.489, 89.842 195.084, 85 196.431 M 274.496 200.742 L 265.492 201.069 261.102 209.642 C 249.094 233.093, 229.233 251.694, 205.201 261.999 C 176.077 274.487, 142.306 273.601, 113.785 259.599 L 105.069 255.321 98.578 266.166 L 92.087 277.011 94.294 278.456 C 98.586 281.266, 113.626 287.795, 121.636 290.325 C 135.555 294.722, 146.167 296.249, 162.500 296.207 C 198.050 296.114, 230.208 283.239, 255.363 259.030 C 269.977 244.964, 279.411 231.177, 287.175 212.536 C 292.050 200.830, 292.056 199.942, 287.250 200.208 C 285.188 200.322, 279.448 200.562, 274.496 200.742" stroke="none" fill="#043fe1" fill-rule="evenodd"/><path d="M 156.500 23.715 C 105.449 26.506, 61.931 55.006, 39.251 100.500 C 25.117 128.852, 21.593 162.613, 29.484 194.058 C 32.089 204.440, 35.399 213.648, 36.383 213.250 C 36.722 213.113, 36.962 212.713, 36.915 212.362 C 36.868 212.011, 37.259 211.448, 37.785 211.112 C 39.078 210.284, 46.570 197.930, 47.439 195.192 C 47.822 193.986, 48.554 193, 49.067 193 C 49.580 193, 50 192.532, 50 191.960 C 50 191.387, 50.974 189.602, 52.164 187.992 C 54.241 185.182, 54.282 184.683, 53.164 175.591 C 50.243 151.817, 53.663 132.300, 64.593 110.376 C 77.827 83.827, 99.917 65.033, 128.316 56.158 C 142.221 51.812, 151.945 50.616, 167.930 51.285 C 183.905 51.954, 194.247 54.544, 208.839 61.529 L 218.178 66 239.339 65.958 L 260.500 65.916 253.161 58.963 C 233.525 40.358, 201.287 26.099, 175.130 24.449 C 170.383 24.149, 165.375 23.800, 164 23.673 C 162.625 23.545, 159.250 23.564, 156.500 23.715 M 131.242 92.851 C 130.156 93.521, 107 131.440, 107 132.546 C 107 132.796, 149.525 133, 201.500 133 C 253.475 133, 296 132.755, 296 132.456 C 296 130.363, 287.985 110.982, 284.287 104.135 C 276.924 90.500, 286.944 92.012, 204.236 92.060 C 164.756 92.083, 131.909 92.438, 131.242 92.851 M 71.220 194.161 C 58.416 215.673, 48.087 233.420, 48.267 233.600 C 48.545 233.878, 57.372 219.638, 64.646 207.177 C 65.868 205.084, 67.807 203.283, 69.146 202.996 C 70.441 202.719, 73.525 201.413, 76 200.094 C 85.300 195.136, 85.543 195.122, 162.886 194.921 L 235.500 194.732 246.500 176.174 C 252.550 165.968, 257.645 157.028, 257.823 156.308 C 258.088 155.238, 243.234 155.004, 176.323 155.024 L 94.500 155.048 71.220 194.161 M 271.969 160.750 C 271.899 173.737, 268.791 189.384, 263.884 201.446 C 260.863 208.872, 260.530 211.585, 263.429 205.158 L 265.170 201.296 277.803 200.699 C 284.751 200.371, 290.660 200.327, 290.935 200.601 C 292.920 202.587, 279.057 230.847, 270.626 242 C 264.591 249.985, 251.874 263.039, 244 269.332 C 241.383 271.423, 241.706 271.308, 245.279 268.874 C 247.907 267.084, 253.879 261.768, 258.551 257.060 C 282.974 232.444, 296.531 201.874, 298.601 166.750 L 299.294 155 285.647 155 L 272 155 271.969 160.750 M 258.500 213 C 257.647 214.650, 257.174 216, 257.449 216 C 257.724 216, 258.647 214.650, 259.500 213 C 260.353 211.350, 260.826 210, 260.551 210 C 260.276 210, 259.353 211.350, 258.500 213 M 255 219 C 254.411 220.100, 254.155 221, 254.430 221 C 254.705 221, 255.411 220.100, 256 219 C 256.589 217.900, 256.845 217, 256.570 217 C 256.295 217, 255.589 217.900, 255 219 M 244.924 232.750 L 242.500 235.500 245.250 233.076 C 246.762 231.742, 248 230.505, 248 230.326 C 248 229.541, 247.190 230.180, 244.924 232.750 M 48 235.359 C 48 237.870, 62.626 255.671, 69.546 261.583 C 73.889 265.293, 75.345 266.053, 76.292 265.098 C 77.238 264.146, 77.160 264.011, 75.936 264.476 C 74.030 265.201, 57.248 248.267, 51.693 240.013 C 49.662 236.996, 48 234.901, 48 235.359 M 233.924 243.750 L 231.500 246.500 234.250 244.076 C 236.820 241.810, 237.459 241, 236.674 241 C 236.495 241, 235.258 242.238, 233.924 243.750 M 99 264 C 98.411 265.100, 98.155 266, 98.430 266 C 98.705 266, 99.411 265.100, 100 264 C 100.589 262.900, 100.845 262, 100.570 262 C 100.295 262, 99.589 262.900, 99 264 M 145.750 269.662 C 146.438 269.940, 147.563 269.940, 148.250 269.662 C 148.938 269.385, 148.375 269.158, 147 269.158 C 145.625 269.158, 145.063 269.385, 145.750 269.662 M 175.750 269.662 C 176.438 269.940, 177.563 269.940, 178.250 269.662 C 178.938 269.385, 178.375 269.158, 177 269.158 C 175.625 269.158, 175.063 269.385, 175.750 269.662 M 157.250 270.735 C 159.863 270.941, 164.137 270.941, 166.750 270.735 C 169.363 270.529, 167.225 270.360, 162 270.360 C 156.775 270.360, 154.637 270.529, 157.250 270.735 M 93 274 C 92.411 275.100, 92.155 276, 92.430 276 C 92.705 276, 93.411 275.100, 94 274 C 94.589 272.900, 94.845 272, 94.570 272 C 94.295 272, 93.589 272.900, 93 274 M 237 274.089 C 234.846 275.851, 234.804 275.986, 236.694 275.062 C 237.901 274.472, 239.165 273.542, 239.503 272.995 C 240.406 271.534, 239.800 271.799, 237 274.089 M 225.500 280.567 C 216.503 285.511, 216.004 286.558, 224.779 282.081 C 229.909 279.463, 235.300 275.977, 234 276.118 C 233.725 276.147, 229.900 278.150, 225.500 280.567 M 92.717 278.379 C 93.387 279.430, 111.993 288.346, 112.474 287.847 C 112.658 287.656, 108.162 285.250, 102.483 282.500 C 96.803 279.750, 92.409 277.896, 92.717 278.379 M 116.610 289.456 C 118.321 290.246, 121.021 291.148, 122.610 291.461 C 125.083 291.948, 124.995 291.832, 122 290.658 C 120.075 289.903, 117.375 289.001, 116 288.653 C 114.120 288.177, 114.271 288.376, 116.610 289.456 M 140.750 295.662 C 141.438 295.940, 142.563 295.940, 143.250 295.662 C 143.938 295.385, 143.375 295.158, 142 295.158 C 140.625 295.158, 140.063 295.385, 140.750 295.662 M 148.750 296.723 C 150.537 296.945, 153.463 296.945, 155.250 296.723 C 157.037 296.502, 155.575 296.320, 152 296.320 C 148.425 296.320, 146.963 296.502, 148.750 296.723 M 167.750 296.723 C 169.537 296.945, 172.463 296.945, 174.250 296.723 C 176.037 296.502, 174.575 296.320, 171 296.320 C 167.425 296.320, 165.963 296.502, 167.750 296.723" stroke="none" fill="#0aa1ee" fill-rule="evenodd"/></svg>